<svg id="visual" viewBox="0 0 900 100" width="900" height="100" xmlns="http://www.w3.org/2000/svg" xmlns:xlink="http://www.w3.org/1999/xlink" version="1.1"><path d="M0 30L25 28C50 26 100 22 150 31C200 40 250 62 300 61.7C350 61.3 400 38.7 450 30.2C500 21.7 550 27.3 600 39.2C650 51 700 69 750 79.5C800 90 850 93 875 94.5L900 96L900 101L875 101C850 101 800 101 750 101C700 101 650 101 600 101C550 101 500 101 450 101C400 101 350 101 300 101C250 101 200 101 150 101C100 101 50 101 25 101L0 101Z" fill="#676EB8" stroke-linecap="round" stroke-linejoin="miter"></path></svg>